HIERARCHY
ROOT hip
{
  OFFSET 0 0 0
  CHANNELS 6 Xposition Yposition Zposition Zrotation Yrotation Xrotation
  JOINT abdomen
  {
    OFFSET 0 20.6881 -0.73152
    CHANNELS 3 Zrotation Xrotation Yrotation
    JOINT chest
    {
      OFFSET 0 11.7043 -0.48768
      CHANNELS 3 Zrotation Xrotation Yrotation
      JOINT neck
      {
        OFFSET 0 22.1894 -2.19456
        CHANNELS 3 Zrotation Xrotation Yrotation
        JOINT head
        {
          OFFSET -0.24384 7.07133 1.2192
          CHANNELS 3 Zrotation Xrotation Yrotation
          JOINT leftEye
          {
            OFFSET 4.14528 8.04674 8.04672
            CHANNELS 3 Zrotation Xrotation Yrotation
            End Site
            {
              OFFSET 1 0 0
            }
          }
          JOINT rightEye
          {
            OFFSET -3.6576 8.04674 8.04672
            CHANNELS 3 Zrotation Xrotation Yrotation
            End Site
            {
              OFFSET 1 0 0
            }
          }
        }
      }
      JOINT rCollar
      {
        OFFSET -2.68224 19.2634 -4.8768
        CHANNELS 3 Zrotation Xrotation Yrotation
        JOINT rShldr
        {
          OFFSET -8.77824 -1.95073 1.46304
          CHANNELS 3 Zrotation Xrotation Yrotation
          JOINT rForeArm
          {
            OFFSET -28.1742 -1.7115 0.48768
            CHANNELS 3 Zrotation Xrotation Yrotation
            JOINT rHand
            {
              OFFSET -22.5879 0.773209 7.07136
              CHANNELS 3 Zrotation Xrotation Yrotation
              JOINT rThumb1
              {
                OFFSET -1.2192 -0.487915 3.41376
                CHANNELS 3 Zrotation Xrotation Yrotation
                JOINT rThumb2
                {
                  OFFSET -3.37035 -0.52449 3.41376
                  CHANNELS 3 Zrotation Xrotation Yrotation
                  End Site
                  {
                    OFFSET -1.78271 -1.18214 1.43049
                  }
                }
              }
              JOINT rIndex1
              {
                OFFSET -7.75947 0.938293 5.60832
                CHANNELS 3 Zrotation Xrotation Yrotation
                JOINT rIndex2
                {
                  OFFSET -2.54057 -0.884171 1.56538
                  CHANNELS 3 Zrotation Xrotation Yrotation
                  End Site
                  {
                    OFFSET -1.62519 -0.234802 1.16502
                  }
                }
              }
              JOINT rMid1
              {
                OFFSET -8.24714 1.18213 3.41376
                CHANNELS 3 Zrotation Xrotation Yrotation
                JOINT rMid2
                {
                  OFFSET -3.10165 -0.590103 1.0647
                  CHANNELS 3 Zrotation Xrotation Yrotation
                  End Site
                  {
                    OFFSET -2.48547 -0.328903 0.83742
                  }
                }
              }
              JOINT rRing1
              {
                OFFSET -8.82822 0.546677 1.51678
                CHANNELS 3 Zrotation Xrotation Yrotation
                JOINT rRing2
                {
                  OFFSET -2.60934 -0.819778 -0.0198488
                  CHANNELS 3 Zrotation Xrotation Yrotation
                  End Site
                  {
                    OFFSET -2.33842 -0.294052 0.168128
                  }
                }
              }
              JOINT rPinky1
              {
                OFFSET -8.27202 -0.0477905 -0.4584
                CHANNELS 3 Zrotation Xrotation Yrotation
                JOINT rPinky2
                {
                  OFFSET -1.82734 -0.647385 -0.700984
                  CHANNELS 3 Zrotation Xrotation Yrotation
                  End Site
                  {
                    OFFSET -1.69225 -0.51767 -0.607171
                  }
                }
              }
            }
          }
        }
      }
      JOINT lCollar
      {
        OFFSET 2.68224 19.2634 -4.8768
        CHANNELS 3 Zrotation Xrotation Yrotation
        JOINT lShldr
        {
          OFFSET 8.77824 -1.95073 1.46304
          CHANNELS 3 Zrotation Xrotation Yrotation
          JOINT lForeArm
          {
            OFFSET 28.1742 -1.7115 0.48768
            CHANNELS 3 Zrotation Xrotation Yrotation
            JOINT lHand
            {
              OFFSET 22.5879 0.773209 7.07136
              CHANNELS 3 Zrotation Xrotation Yrotation
              JOINT lThumb1
              {
                OFFSET 1.2192 -0.487915 3.41376
                CHANNELS 3 Zrotation Xrotation Yrotation
                JOINT lThumb2
                {
                  OFFSET 3.37035 -0.52449 3.41376
                  CHANNELS 3 Zrotation Xrotation Yrotation
                  End Site
                  {
                    OFFSET 1.78271 -1.18214 1.43049
                  }
                }
              }
              JOINT lIndex1
              {
                OFFSET 7.75947 0.938293 5.60832
                CHANNELS 3 Zrotation Xrotation Yrotation
                JOINT lIndex2
                {
                  OFFSET 2.54057 -0.884171 1.56538
                  CHANNELS 3 Zrotation Xrotation Yrotation
                  End Site
                  {
                    OFFSET 1.62519 -0.234802 1.16502
                  }
                }
              }
              JOINT lMid1
              {
                OFFSET 8.24714 1.18213 3.41376
                CHANNELS 3 Zrotation Xrotation Yrotation
                JOINT lMid2
                {
                  OFFSET 3.10165 -0.590103 1.0647
                  CHANNELS 3 Zrotation Xrotation Yrotation
                  End Site
                  {
                    OFFSET 2.48547 -0.328903 0.83742
                  }
                }
              }
              JOINT lRing1
              {
                OFFSET 8.82822 0.546677 1.51678
                CHANNELS 3 Zrotation Xrotation Yrotation
                JOINT lRing2
                {
                  OFFSET 2.60934 -0.819778 -0.0198488
                  CHANNELS 3 Zrotation Xrotation Yrotation
                  End Site
                  {
                    OFFSET 2.33842 -0.294052 0.168128
                  }
                }
              }
              JOINT lPinky1
              {
                OFFSET 8.27202 -0.0477905 -0.4584
                CHANNELS 3 Zrotation Xrotation Yrotation
                JOINT lPinky2
                {
                  OFFSET 1.82734 -0.647385 -0.700984
                  CHANNELS 3 Zrotation Xrotation Yrotation
                  End Site
                  {
                    OFFSET 1.69225 -0.51767 -0.607171
                  }
                }
              }
            }
          }
        }
      }
    }
  }
  JOINT rButtock
  {
    OFFSET -8.77824 4.35084 1.2192
    CHANNELS 3 Zrotation Xrotation Yrotation
    JOINT rThigh
    {
      OFFSET 0 -1.70687 -2.19456
      CHANNELS 3 Zrotation Xrotation Yrotation
      JOINT rShin
      {
        OFFSET 0 -36.8199 0.73152
        CHANNELS 3 Zrotation Xrotation Yrotation
        JOINT rFoot
        {
          OFFSET 0.73152 -45.1104 -5.12064
          CHANNELS 3 Zrotation Xrotation Yrotation
          End Site
          {
            OFFSET -1.1221 -3.69964 12.103
          }
        }
      }
    }
  }
  JOINT lButtock
  {
    OFFSET 8.77824 4.35084 1.2192
    CHANNELS 3 Zrotation Xrotation Yrotation
    JOINT lThigh
    {
      OFFSET 0 -1.70687 -2.19456
      CHANNELS 3 Zrotation Xrotation Yrotation
      JOINT lShin
      {
        OFFSET 0 -36.8199 0.73152
        CHANNELS 3 Zrotation Xrotation Yrotation
        JOINT lFoot
        {
          OFFSET -0.73152 -45.1104 -5.12064
          CHANNELS 3 Zrotation Xrotation Yrotation
          End Site
          {
            OFFSET 1.1221 -3.69964 12.103
          }
        }
      }
    }
  }
}
MOTION
Frames:	4
Frame Time:	0.03333
-0.6203000000000001 55.9088 232.66 9.270255 13.411172 7.16989 -16.758371 7.112966 -101.095933 7.049651 8.344447 77.821723 5.089925 29.016038 63.999417 -36.184666 -10.215352 -135.075361 0.001493 0.0 0.000695 -0.004208 -0.0 0.001137 4.231756 -44.380058 -8.573532 -120.497017 -9.071634 -150.335367 19.270746 42.662921 -81.538701 167.566408 -17.762291 144.447809 -12.304296 11.515704 3.093665 -37.099494 21.836655 37.975016 -160.015296 -33.011968 122.697967 12.258899 1.286872 -9.597995 0.2362 -0.689148 -0.129623 91.950672 -78.578177 62.954281 -145.1214 1.975374 -179.74896 -156.654246 15.302303 178.976054 -26.564918 -38.85989 -25.607866 -154.137369 38.361325 -148.187927 85.537249 68.182339 -88.688954 103.545212 8.276116 -93.706272 153.507802 1.761335 159.469231 -2.216749 9.913387 -3.192621 121.364754 30.329794 -71.95802 62.169922 -6.482105 -40.721792 151.353029 -17.1584 -121.133231 0.856503 22.142901 4.491549 169.089828 -33.247379 -145.374797 13.715622 36.279857 -11.054055 145.099545 -1.520997 178.649941 54.621974 87.57994 -67.958575 -0.099019 0.258246 -0.091325 128.765867 -29.150225 127.101679 -179.996525 75.749343 -0.002377 154.853699 -0.087486 -0.575427 -4.68265 78.773929 97.700308 -82.541169 67.935382 6.29955 -179.997318 75.750367 -0.002366 -82.043021 87.04903 16.091867 27.793768 -10.113792 -96.291165 0.225841 -27.840379 23.581949
-0.3939 55.9614 232.704 9.230932 13.196123 7.232404 -16.737372 6.724592 -111.27503 5.0474 9.533964 87.835814 -6.801269 24.861007 0.273762 7.545024 -32.697698 -63.906085 -0.002645 0.0 -0.001217 -0.002645 0.0 -0.001217 -82.106298 68.325877 85.22139 95.34483 -30.616767 83.112587 6.756982 3.743952 35.847019 -9.539852 36.631247 2.75462 114.5387 -50.245692 55.722189 -22.702225 -33.791983 -23.618471 60.461604 -70.52367 15.711293 -173.371018 -39.925593 110.436587 -36.034778 51.723315 29.832539 167.996278 -64.090481 133.011661 -67.606149 -72.074947 -84.373643 14.727634 0.865625 -4.342097 3.761285 10.729436 3.419508 -147.113934 10.26783 -143.332352 -0.133502 -0.807156 0.178288 -75.533952 17.260504 -4.488097 4.173471 -1.594579 -29.572877 4.543584 31.104482 -2.771681 5.17641 5.019554 -1.016754 -19.69899 -26.568368 9.985414 -179.286605 -59.50093 -116.31299 -86.53461 -67.89733 -30.947894 0.057971 0.167747 -0.032906 -29.353964 -60.226102 -6.393053 145.123148 1.079882 179.468857 -11.510331 58.79924 1.658843 124.850989 -29.039623 122.623055 75.676914 -53.253373 76.069551 0.003273 0.001278 -0.0 -62.281867 -61.570668 -59.672094 -21.632147 82.924683 158.207625 45.432798 60.593638 -136.630213 0.002517 0.000776 0.002517 3.783448 16.317403 -0.0 -12.274016 36.897896 -124.988276 153.112767 -4.261823 171.498294
-0.23909999999999998 56.077 232.687 9.165953 13.074526 7.434709 -19.134515 9.742879 2.545249 9.237632 -11.743506 -24.303495 -16.096277 37.954753 -94.637444 45.109095 19.086109 24.093458 6.3e-05 0.0 0.001351 6.3e-05 0.0 0.001351 -150.120107 21.701177 155.21975 -46.927535 4.780642 28.953249 -93.646285 -42.991146 -103.452664 18.873114 -38.658444 10.941405 -166.631784 -4.304882 89.770493 -77.345866 3.302766 27.079793 -27.421744 30.639021 20.099078 4.961793 4.204513 -0.74189 173.122073 -66.297625 137.613112 -129.173853 51.938085 118.154782 -69.015123 72.939208 86.720877 -159.826898 -1.258489 176.330795 -145.692098 13.731988 -142.282829 11.311342 26.247722 4.028412 155.45126 -3.171617 -161.765902 170.456037 -88.006187 116.818069 9.338267 75.810242 52.811407 -152.676024 -40.89554 -136.507014 85.828939 38.631011 -47.955808 -10.420718 -21.165054 -23.14976 14.22782 19.203576 -9.55998 178.115676 -32.26702 -107.378261 108.909238 57.216475 -99.527601 42.175714 58.408189 -36.445888 -0.000748 0.022432 -0.008194 -7.835094 23.994965 -3.531469 148.071857 21.783992 144.328362 -1.83717 -0.693199 2.191303 -0.001357 0.000158 -0.002035 -64.18477 -63.464155 180.0 -79.488914 -42.767174 3.18201 22.46342 -31.758685 119.212302 0.004195 -0.000541 0.002098 4.909224 15.359423 -75.06222 -28.282801 3.363878 83.418771 38.987964 -3.670982 27.601545
-0.0645 56.1152 232.695 9.009746 13.007472 7.402674 -20.46674 9.266332 41.329766 1.208024 -15.481894 -64.061182 4.152758 27.629705 55.676206 -32.820734 -15.337188 -128.159841 0.002663 -0.0 -0.000243 0.002217 -0.0 -0.001555 3.748385 -33.331111 -6.447067 -119.982703 -0.621354 -158.613498 4.116834 35.930918 -67.679681 161.40013 -31.193811 140.976652 -90.49602 38.312551 51.260858 26.149562 -30.104938 22.35673 -166.823352 -43.973759 122.060036 14.925833 -2.001271 -9.693315 -89.83497 60.701433 81.262805 179.835831 -49.551312 140.931694 -13.615766 -53.680763 -25.678457 -74.245689 80.91101 91.389384 -9.259363 -19.3867 -8.753524 -147.489666 13.449972 -144.047354 153.592434 -75.69353 178.26216 -103.472976 36.11123 103.052376 86.500712 41.750195 -75.723792 -22.837334 -40.659393 -15.371018 -114.538907 -50.245635 -55.721808 151.105169 6.661554 -106.619523 -73.418969 -73.571919 -26.563422 47.243451 52.172904 -38.431278 -7.903417 -24.807721 3.01347 42.15898 58.534595 -36.108354 145.121185 0.185972 179.185555 154.173407 -12.5235 177.503271 12.007175 -23.632194 11.402086 -11.488244 28.140718 -6.397747 -179.979914 75.750807 -0.013743 156.418389 -1.196151 -87.262006 -80.262447 -11.311456 8.541291 147.196458 -51.089983 -105.70762 0.0 -0.000655 0.000633 3.87649 16.077895 -13.74867 -10.915691 37.416849 145.519032 -31.314758 -27.458994 -98.718679
